HIERARCHY
ROOT Hips
{
	OFFSET 0.000000 97.167313 0.000000
	CHANNELS 6 Xposition Yposition Zposition Xrotation Yrotation Zrotation
	JOINT Spine
	{
		OFFSET 0.000000 13.784798 0.064400
		CHANNELS 3 Xrotation Yrotation Zrotation
		JOINT Spine1
		{
			OFFSET 0.000000 12.037903 0.404700
			CHANNELS 3 Xrotation Yrotation Zrotation
			JOINT Spine2
			{
				OFFSET 0.000000 17.795601 0.420200
				CHANNELS 3 Xrotation Yrotation Zrotation
				JOINT Neck
				{
					OFFSET 0.000000 39.131302 11.954600
					CHANNELS 3 Xrotation Yrotation Zrotation
					JOINT Head
					{
						OFFSET 0.000000 14.456192 15.627699
						CHANNELS 3 Xrotation Yrotation Zrotation
						JOINT HeadTop_End
						{
							OFFSET 0.000000 15.703506 7.603401
							CHANNELS 3 Xrotation Yrotation Zrotation
							End Site
							{
								OFFSET 0.000000 17.447403 0.000000
							}
						}
					}
				}
				JOINT LeftShoulder
				{
					OFFSET 17.399500 24.608795 1.168800
					CHANNELS 3 Xrotation Yrotation Zrotation
					JOINT LeftArm
					{
						OFFSET 18.980635 5.765305 1.818600
						CHANNELS 3 Xrotation Yrotation Zrotation
						JOINT LeftForeArm
						{
							OFFSET 49.290169 0.000000 0.000000
							CHANNELS 3 Xrotation Yrotation Zrotation
							JOINT LeftHand
							{
								OFFSET 31.562012 0.000000 0.000000
								CHANNELS 3 Xrotation Yrotation Zrotation
								JOINT LeftHandThumb1
								{
									OFFSET 6.133995 -4.388519 7.076070
									CHANNELS 3 Xrotation Yrotation Zrotation
									JOINT LeftHandThumb2
									{
										OFFSET 6.037666 -3.485840 3.485847
										CHANNELS 3 Xrotation Yrotation Zrotation
										JOINT LeftHandThumb3
										{
											OFFSET 6.496506 -3.750763 3.750761
											CHANNELS 3 Xrotation Yrotation Zrotation
											JOINT LeftHandThumb4
											{
												OFFSET 5.616882 -3.242905 3.242910
												CHANNELS 3 Xrotation Yrotation Zrotation
												End Site
												{
													OFFSET -1.254608 7.132141 0.375429
												}
											}
										}
									}
								}
								JOINT LeftHandPinky1
								{
									OFFSET 18.920792 -0.453171 -11.426712
									CHANNELS 3 Xrotation Yrotation Zrotation
									JOINT LeftHandPinky2
									{
										OFFSET 4.919586 0.000000 0.000000
										CHANNELS 3 Xrotation Yrotation Zrotation
										JOINT LeftHandPinky3
										{
											OFFSET 5.233047 0.000000 0.000000
											CHANNELS 3 Xrotation Yrotation Zrotation
											JOINT LeftHandPinky4
											{
												OFFSET 5.571716 0.000000 0.000000
												CHANNELS 3 Xrotation Yrotation Zrotation
												End Site
												{
													OFFSET -3.459808 4.342407 -0.466164
												}
											}
										}
									}
								}
								JOINT LeftHandRing1
								{
									OFFSET 22.726120 -0.094986 -6.500475
									CHANNELS 3 Xrotation Yrotation Zrotation
									JOINT LeftHandRing2
									{
										OFFSET 6.408615 0.000000 0.000000
										CHANNELS 3 Xrotation Yrotation Zrotation
										JOINT LeftHandRing3
										{
											OFFSET 6.150223 0.000000 0.000000
											CHANNELS 3 Xrotation Yrotation Zrotation
											JOINT LeftHandRing4
											{
												OFFSET 6.145386 0.000000 0.000000
												CHANNELS 3 Xrotation Yrotation Zrotation
												End Site
												{
													OFFSET -3.671402 4.923981 -0.202372
												}
											}
										}
									}
								}
								JOINT LeftHandMiddle1
								{
									OFFSET 23.373947 0.000000 0.000001
									CHANNELS 3 Xrotation Yrotation Zrotation
									JOINT LeftHandMiddle2
									{
										OFFSET 6.996567 0.000000 0.000000
										CHANNELS 3 Xrotation Yrotation Zrotation
										JOINT LeftHandMiddle3
										{
											OFFSET 7.015945 0.000000 0.000000
											CHANNELS 3 Xrotation Yrotation Zrotation
											JOINT LeftHandMiddle4
											{
												OFFSET 7.721573 0.000000 0.000000
												CHANNELS 3 Xrotation Yrotation Zrotation
												End Site
												{
													OFFSET -4.651108 6.158463 0.251582
												}
											}
										}
									}
								}
								JOINT LeftHandIndex1
								{
									OFFSET 21.310577 -0.490082 6.209344
									CHANNELS 3 Xrotation Yrotation Zrotation
									JOINT LeftHandIndex2
									{
										OFFSET 7.536453 0.000000 0.000000
										CHANNELS 3 Xrotation Yrotation Zrotation
										JOINT LeftHandIndex3
										{
											OFFSET 7.512344 0.000000 0.000000
											CHANNELS 3 Xrotation Yrotation Zrotation
											JOINT LeftHandIndex4
											{
												OFFSET 10.212402 0.000000 0.000001
												CHANNELS 3 Xrotation Yrotation Zrotation
												End Site
												{
													OFFSET -5.180801 8.690506 1.388433
												}
											}
										}
									}
								}
							}
						}
					}
				}
				JOINT RightShoulder
				{
					OFFSET -17.399500 24.608795 1.168800
					CHANNELS 3 Xrotation Yrotation Zrotation
					JOINT RightArm
					{
						OFFSET -18.980635 5.765305 1.818600
						CHANNELS 3 Xrotation Yrotation Zrotation
						JOINT RightForeArm
						{
							OFFSET -49.290169 0.000000 0.000000
							CHANNELS 3 Xrotation Yrotation Zrotation
							JOINT RightHand
							{
								OFFSET -31.562012 0.000000 0.000000
								CHANNELS 3 Xrotation Yrotation Zrotation
								JOINT RightHandThumb1
								{
									OFFSET -6.133995 -4.388519 7.076070
									CHANNELS 3 Xrotation Yrotation Zrotation
									JOINT RightHandThumb2
									{
										OFFSET -6.037666 -3.485840 3.485847
										CHANNELS 3 Xrotation Yrotation Zrotation
										JOINT RightHandThumb3
										{
											OFFSET -6.496506 -3.750763 3.750761
											CHANNELS 3 Xrotation Yrotation Zrotation
											JOINT RightHandThumb4
											{
												OFFSET -5.616882 -3.242905 3.242910
												CHANNELS 3 Xrotation Yrotation Zrotation
												End Site
												{
													OFFSET 1.254608 7.132141 0.375429
												}
											}
										}
									}
								}
								JOINT RightHandIndex1
								{
									OFFSET -21.310577 -0.490082 6.209344
									CHANNELS 3 Xrotation Yrotation Zrotation
									JOINT RightHandIndex2
									{
										OFFSET -7.536453 0.000000 0.000000
										CHANNELS 3 Xrotation Yrotation Zrotation
										JOINT RightHandIndex3
										{
											OFFSET -7.512344 0.000000 0.000000
											CHANNELS 3 Xrotation Yrotation Zrotation
											JOINT RightHandIndex4
											{
												OFFSET -10.212402 0.000000 0.000001
												CHANNELS 3 Xrotation Yrotation Zrotation
												End Site
												{
													OFFSET 5.180801 8.690506 1.388433
												}
											}
										}
									}
								}
								JOINT RightHandMiddle1
								{
									OFFSET -23.373947 0.000000 0.000001
									CHANNELS 3 Xrotation Yrotation Zrotation
									JOINT RightHandMiddle2
									{
										OFFSET -6.996567 0.000000 0.000000
										CHANNELS 3 Xrotation Yrotation Zrotation
										JOINT RightHandMiddle3
										{
											OFFSET -7.015945 0.000000 0.000000
											CHANNELS 3 Xrotation Yrotation Zrotation
											JOINT RightHandMiddle4
											{
												OFFSET -7.721573 0.000000 0.000000
												CHANNELS 3 Xrotation Yrotation Zrotation
												End Site
												{
													OFFSET 4.651108 6.158463 0.251582
												}
											}
										}
									}
								}
								JOINT RightHandRing1
								{
									OFFSET -22.726120 -0.094986 -6.500475
									CHANNELS 3 Xrotation Yrotation Zrotation
									JOINT RightHandRing2
									{
										OFFSET -6.408615 0.000000 0.000000
										CHANNELS 3 Xrotation Yrotation Zrotation
										JOINT RightHandRing3
										{
											OFFSET -6.150223 0.000000 0.000000
											CHANNELS 3 Xrotation Yrotation Zrotation
											JOINT RightHandRing4
											{
												OFFSET -6.145386 0.000000 0.000000
												CHANNELS 3 Xrotation Yrotation Zrotation
												End Site
												{
													OFFSET 3.671402 4.923981 -0.202372
												}
											}
										}
									}
								}
								JOINT RightHandPinky1
								{
									OFFSET -18.920792 -0.453171 -11.426712
									CHANNELS 3 Xrotation Yrotation Zrotation
									JOINT RightHandPinky2
									{
										OFFSET -4.919586 0.000000 0.000000
										CHANNELS 3 Xrotation Yrotation Zrotation
										JOINT RightHandPinky3
										{
											OFFSET -5.233047 0.000000 0.000000
											CHANNELS 3 Xrotation Yrotation Zrotation
											JOINT RightHandPinky4
											{
												OFFSET -5.571716 0.000000 0.000000
												CHANNELS 3 Xrotation Yrotation Zrotation
												End Site
												{
													OFFSET 3.459808 4.342407 -0.466164
												}
											}
										}
									}
								}
							}
						}
					}
				}
			}
		}
	}
	JOINT LeftUpLeg
	{
		OFFSET 19.899099 -7.885101 -3.429500
		CHANNELS 3 Xrotation Yrotation Zrotation
		JOINT LeftLeg
		{
			OFFSET 1.745560 -36.997807 10.304700
			CHANNELS 3 Xrotation Yrotation Zrotation
			JOINT LeftFoot
			{
				OFFSET -1.745558 -29.803308 -13.615400
				CHANNELS 3 Xrotation Yrotation Zrotation
				JOINT LeftToeBase
				{
					OFFSET 1.181900 -18.539904 15.226099
					CHANNELS 3 Xrotation Yrotation Zrotation
					JOINT LeftToe_End
					{
						OFFSET -0.863701 1.402801 16.534700
						CHANNELS 3 Xrotation Yrotation Zrotation
						End Site
						{
							OFFSET 0.000000 16.616566 0.000000
						}
					}
				}
			}
		}
	}
	JOINT RightUpLeg
	{
		OFFSET -19.899099 -7.885101 -3.429500
		CHANNELS 3 Xrotation Yrotation Zrotation
		JOINT RightLeg
		{
			OFFSET -1.745560 -36.997807 10.304700
			CHANNELS 3 Xrotation Yrotation Zrotation
			JOINT RightFoot
			{
				OFFSET 1.745558 -29.803308 -13.615400
				CHANNELS 3 Xrotation Yrotation Zrotation
				JOINT RightToeBase
				{
					OFFSET -1.181900 -18.539904 15.226099
					CHANNELS 3 Xrotation Yrotation Zrotation
					JOINT RightToe_End
					{
						OFFSET 0.863701 1.402801 16.534700
						CHANNELS 3 Xrotation Yrotation Zrotation
						End Site
						{
							OFFSET 0.000000 16.616566 0.000000
						}
					}
				}
			}
		}
	}
}
MOTION
Frames: 4
Frame Time: 0.033333
8.843819 75.085983 0.243283 -2.885368 -67.233896 2.254903 16.096432 5.213191 -1.964310 3.336262 1.151908 -2.738167 3.384809 1.025649 -2.741099 8.559095 11.886168 -9.666167 -0.384138 35.435107 -12.094729 -0.000000 0.000000 -0.000000 0.425632 -15.282622 -11.394552 -32.344935 23.901706 -34.836956 -0.000138 -96.803301 -0.000136 6.704643 -14.466366 17.756385 -6.933678 -4.009681 -2.826206 20.377154 50.717942 -9.823262 38.159522 52.830086 -21.106067 0.000002 0.000003 0.000001 10.322480 7.237000 -84.559743 7.100774 2.791430 -91.834441 3.380528 5.927893 -59.360307 0.000001 0.000006 -0.000001 6.856935 6.881142 -89.797528 7.750275 6.826344 -97.273006 1.866525 4.718134 -43.149385 0.000001 0.000003 -0.000002 6.599581 6.875465 -87.648846 7.610977 6.842564 -96.102428 2.071741 4.927182 -45.590102 0.000001 -0.000003 0.000001 7.005293 6.880049 -91.035903 6.567072 6.874053 -87.377210 1.698604 4.532949 -41.067428 -0.000000 0.000001 0.000001 0.571763 5.480918 10.560346 -49.528833 52.541374 81.009971 0.000044 106.264541 -0.000042 -26.215140 18.216886 5.308505 -20.907872 8.631782 -5.652079 27.712232 -44.701051 7.363777 23.492048 -53.440660 1.364887 -0.000002 0.000003 0.000002 5.472381 -6.790420 77.707390 7.509471 -6.925628 94.644224 2.476471 -5.323416 49.871248 -0.000001 -0.000001 -0.000001 5.920517 -6.872185 81.473611 7.771065 -6.899572 96.817529 2.736313 -5.531079 52.618008 0.000000 0.000001 -0.000001 7.005250 -6.947997 90.471292 7.506002 -6.925912 94.615633 2.637449 -5.454469 51.585096 0.000002 0.000001 -0.000003 8.437807 -6.792810 100.163310 7.830900 -6.892205 97.315975 2.868610 -5.629227 53.978401 -0.000001 -0.000002 0.000002 -35.219744 12.111093 32.997532 42.458109 -8.883764 -2.455284 -3.939098 4.461917 -17.418815 -1.843672 0.000024 0.000004 -0.000000 -0.000003 0.000000 -16.173697 -10.556333 -34.412347 51.186329 14.639312 -2.608420 -37.422890 -3.276631 18.536479 -1.769223 -0.000012 0.000002 -0.000000 -0.000000 0.000000 
8.706324 75.075218 0.222659 -2.859825 -67.219334 2.274474 16.070236 5.214163 -1.938711 3.334938 1.151277 -2.727939 3.383364 1.025376 -2.730786 8.628688 11.889773 -9.748049 -0.261709 35.410726 -12.162368 0.000002 -0.000001 -0.000000 0.408474 -15.340537 -11.558637 -32.349483 23.893701 -34.838930 0.000167 -96.913240 0.000166 6.661192 -14.460567 17.791786 -6.934633 -4.011792 -2.821004 20.424202 50.767563 -9.858466 38.142198 52.821008 -21.093938 0.000001 -0.000004 -0.000001 10.319683 7.238537 -84.534738 7.100752 2.791436 -91.834277 3.382225 5.928894 -59.376726 -0.000001 0.000000 -0.000002 6.860308 6.881168 -89.825689 7.750521 6.826316 -97.274987 1.867101 4.718741 -43.156315 0.000001 0.000003 0.000003 6.603105 6.875605 -87.678326 7.614021 6.842243 -96.128076 2.074009 4.929380 -45.616320 0.000002 0.000000 0.000006 7.008142 6.880006 -91.059618 6.571640 6.874265 -87.415534 1.699575 4.534048 -41.079585 0.000001 -0.000001 0.000001 0.577295 5.395092 10.327208 -49.566321 52.501636 81.178117 0.000015 106.056165 0.000036 -26.787587 18.595181 5.795985 -20.904906 8.647128 -5.682498 27.720330 -44.708461 7.367260 23.481687 -53.425439 1.361082 0.000001 0.000000 0.000001 5.472227 -6.790390 77.706120 7.509605 -6.925628 94.645515 2.476524 -5.323468 49.871828 -0.000001 0.000001 0.000001 5.921575 -6.872334 81.482422 7.770460 -6.899642 96.812604 2.737772 -5.532192 52.633130 0.000000 -0.000001 -0.000004 7.007357 -6.947987 90.488771 7.506228 -6.925889 94.617518 2.636097 -5.453388 51.570766 -0.000001 0.000001 -0.000003 8.441649 -6.791917 100.206170 7.829497 -6.892391 97.304234 2.868354 -5.629040 53.975812 -0.000000 -0.000003 0.000000 -35.175604 12.100682 33.100709 42.583781 -8.624728 -2.504500 -3.976618 4.473884 -17.305876 -1.879092 0.000001 0.000004 -0.000000 0.000001 0.000000 -16.052271 -10.610450 -34.292140 51.206973 14.729482 -2.692400 -37.639113 -3.200498 18.426443 -1.838826 0.000013 -0.000006 0.000000 -0.000000 -0.000000 
8.568989 75.121468 0.198025 -2.828930 -67.109552 2.336260 16.002358 5.200115 -1.938931 3.354770 1.147810 -2.759919 3.403320 1.021381 -2.762178 8.654054 11.864214 -9.727088 -0.244753 35.331438 -12.222760 -0.000002 0.000001 -0.000000 0.413141 -15.323121 -11.514213 -32.263109 23.872659 -35.081552 0.000020 -97.075976 0.000007 6.683013 -14.429977 18.036754 -6.919142 -3.990212 -2.818984 20.521312 50.870419 -9.932006 38.088799 52.793052 -21.056548 0.000000 0.000001 -0.000001 10.310738 7.242966 -84.460972 7.098175 2.791521 -91.812899 3.390863 5.933971 -59.460198 0.000001 0.000000 -0.000002 6.864293 6.881190 -89.858925 7.749518 6.826429 -97.266531 1.868044 4.719742 -43.167748 -0.000001 -0.000000 0.000005 6.605071 6.875677 -87.694670 7.620983 6.841496 -96.186521 2.078743 4.934002 -45.671481 0.000002 0.000001 0.000004 7.009469 6.879989 -91.070812 6.584467 6.874833 -87.522563 1.705027 4.540266 -41.148512 -0.000000 0.000001 0.000001 0.576043 5.338058 10.426701 -49.590793 52.720188 80.955384 0.000147 105.969313 -0.000129 -26.909448 18.569328 5.723780 -20.859000 8.630177 -5.730039 27.726910 -44.714380 7.370424 23.455018 -53.386275 1.351313 0.000003 -0.000001 0.000002 5.473737 -6.790698 77.718851 7.507397 -6.925808 94.627189 2.481264 -5.327431 49.922823 -0.000001 0.000000 0.000001 5.928838 -6.873402 81.542999 7.769228 -6.899789 96.802338 2.741239 -5.534819 52.668999 0.000000 0.000001 -0.000004 7.014318 -6.947922 90.546233 7.506469 -6.925872 94.619492 2.636706 -5.453890 51.577327 0.000002 -0.000000 0.000000 8.448676 -6.790316 100.278256 7.828713 -6.892494 97.297752 2.867345 -5.628315 53.965492 0.000002 0.000002 0.000008 -35.066765 12.127096 33.096945 42.524109 -8.368251 -2.559624 -3.906562 4.489474 -17.265887 -1.878780 -0.000017 0.000013 0.000000 -0.000003 0.000000 -15.808212 -10.659460 -34.207647 51.089562 14.663410 -2.725916 -37.826660 -3.074938 18.416826 -1.852663 -0.000010 0.000002 0.000000 -0.000000 -0.000000 
8.435823 75.210159 0.169556 -2.719686 -66.854267 2.419458 15.863999 5.171069 -1.908755 3.361966 1.140105 -2.762761 3.410222 1.014506 -2.764403 8.677730 11.819200 -9.673664 -0.277763 35.186570 -12.264146 -0.000002 0.000000 -0.000000 0.424536 -15.316868 -11.410009 -32.063934 23.845285 -35.371692 -0.000278 -97.257297 -0.000315 6.729586 -14.390592 18.460391 -6.904803 -3.955547 -2.855911 20.646782 51.003608 -10.028231 38.019835 52.756876 -21.008419 0.000001 0.000002 0.000001 10.294753 7.250652 -84.331649 7.093899 2.791634 -91.777252 3.406981 5.943402 -59.615995 0.000001 -0.000000 -0.000000 6.866356 6.881190 -89.876219 7.745455 6.826949 -97.232374 1.873728 4.725785 -43.236983 0.000002 0.000001 0.000003 6.605352 6.875691 -87.697047 7.626451 6.840908 -96.232352 2.085678 4.940742 -45.752125 0.000000 -0.000001 0.000004 7.003957 6.880078 -91.024784 6.602420 6.875586 -87.672520 1.710361 4.546347 -41.215820 -0.000002 -0.000000 -0.000001 0.573022 5.417188 10.536344 -49.463158 52.780505 80.547321 -0.000061 106.050790 0.000083 -26.890417 18.365206 5.703662 -20.901789 8.665773 -5.784795 27.746600 -44.732319 7.379176 23.434989 -53.356543 1.344134 0.000001 0.000000 -0.000003 5.480197 -6.792104 77.773438 7.507276 -6.925816 94.626131 2.498100 -5.341505 50.104072 -0.000000 0.000000 0.000001 5.934998 -6.874321 81.594499 7.767527 -6.899988 96.788152 2.748701 -5.540484 52.746436 0.000001 -0.000001 -0.000004 7.022054 -6.947850 90.610198 7.506703 -6.925852 94.621486 2.641330 -5.457525 51.625872 -0.000000 -0.000000 0.000002 8.468546 -6.785845 100.460902 7.827223 -6.892670 97.285376 2.865738 -5.627153 53.949178 0.000003 -0.000002 0.000002 -35.052534 12.122826 33.076335 42.370880 -8.166880 -2.604500 -3.730808 4.486731 -17.250249 -1.838483 -0.000003 -0.000001 0.000000 0.000000 0.000000 -15.413223 -10.754512 -33.975448 50.833792 14.606771 -2.726136 -37.999245 -3.103947 18.324639 -1.771618 -0.000015 0.000001 -0.000000 -0.000000 0.000000 
